PathFileType	4	(X/Y/Z)	C:/Users/opensim2020/Desktop/walking_exp_matlab/subject03_walking14_straight_02.trc	
DataRate	CameraRate	NumFrames	NumMarkers	Units	OrigDataRate	OrigDataStartFrame	OrigNumFrames	
100.00	100.00	6	47	mm	100.00	1149	168	
Frame#	Time	LFHD			RFHD			LBHD			RBHD			C7			T10			CLAV			STRN			RBAK			LSHO			LUPA			LELB			LFRM			LWRA			LWRB			LFIN			RSHO			RUPA			RELB			RFRM			RWRA			RWRB			RFIN			LASI			RASI			LPSI			RPSI			LTHI			LKNE			LTIB			LANK			LHEE			LTOE			RTHI			RKNE			RTIB			RANK			RHEE			RTOE			*39			*40			*41			*42			*43			*44			*45			*46			
		X1	Y1	Z1	X2	Y2	Z2	X3	Y3	Z3	X4	Y4	Z4	X5	Y5	Z5	X6	Y6	Z6	X7	Y7	Z7	X8	Y8	Z8	X9	Y9	Z9	X10	Y10	Z10	X11	Y11	Z11	X12	Y12	Z12	X13	Y13	Z13	X14	Y14	Z14	X15	Y15	Z15	X16	Y16	Z16	X17	Y17	Z17	X18	Y18	Z18	X19	Y19	Z19	X20	Y20	Z20	X21	Y21	Z21	X22	Y22	Z22	X23	Y23	Z23	X24	Y24	Z24	X25	Y25	Z25	X26	Y26	Z26	X27	Y27	Z27	X28	Y28	Z28	X29	Y29	Z29	X30	Y30	Z30	X31	Y31	Z31	X32	Y32	Z32	X33	Y33	Z33	X34	Y34	Z34	X35	Y35	Z35	X36	Y36	Z36	X37	Y37	Z37	X38	Y38	Z38	X39	Y39	Z39	X40	Y40	Z40	X41	Y41	Z41	X42	Y42	Z42	X43	Y43	Z43	X44	Y44	Z44	X45	Y45	Z45	X46	Y46	Z46	X47	Y47	Z47	

106	1.050	-917.33447	-201.03221	1605.23242	-1050.22974	-191.90378	1608.73889	-914.62238	-81.53083	1542.40112	-1045.15747	-77.39497	1545.81580	-971.12006	-66.49939	1386.59790	-965.75964	-44.28892	1075.31067	-976.64050	-194.71156	1319.33215	-967.91437	-247.24147	1157.29431	-1055.46887	-19.89264	1208.29346	-819.83344	-152.14598	1357.97888	-737.62909	-179.20355	1171.32922	-722.56012	-220.83484	1059.09619	-740.66577	-318.44101	982.46014	-792.14044	-407.42929	919.17401	-742.70068	-394.03400	897.68384	-761.20978	-466.91180	865.84015	-1134.97827	-138.20586	1335.86829	-1192.71704	-95.68547	1113.93896	-1195.62170	-82.17766	999.91327	-1191.83691	-50.50233	865.95746	-1153.24146	-42.38173	766.10883	-1199.24744	-12.31906	772.15533	-1178.79224	10.10574	698.86334	-850.15356	-205.65289	909.91901	-1085.33911	-218.11205	924.40747	-907.41516	-46.74060	930.89703	-1054.19702	-54.08554	944.62122	-797.74939	-117.45743	609.66016	-814.50983	-89.47820	431.75452	-822.15210	75.52408	314.01529	-865.41040	227.65025	173.87004	-905.21289	270.89987	193.61275	-906.71954	190.05014	31.97217	-1131.14905	-240.53288	635.35760	-1082.18091	-317.56982	476.83728	-1086.84412	-300.39783	281.58386	-1037.11340	-286.41983	67.54798	-987.82202	-238.97105	36.52703	-1018.26941	-426.49783	32.89709	-962.83063	-107.93781	1653.57263																					 
107	1.060	-917.75293	-214.49358	1606.72656	-1050.66931	-205.43730	1610.17444	-915.12769	-94.87315	1544.08862	-1045.71338	-90.82887	1547.42468	-972.02533	-79.51015	1387.86780	-967.18359	-57.77151	1076.78552	-977.14404	-208.04579	1320.76868	-968.35638	-260.69116	1158.77588	-1056.65820	-33.72945	1210.07764	-820.60699	-164.81699	1359.32434	-738.58716	-190.42534	1172.44141	-723.81390	-230.75293	1059.87048	-741.96698	-327.89917	983.09344	-793.56561	-416.95688	920.14673	-744.35809	-403.29413	898.10370	-762.75116	-476.30692	866.85913	-1135.85779	-152.09212	1337.68884	-1194.06604	-110.16183	1115.91223	-1197.11316	-97.06316	1001.84613	-1193.41528	-66.44297	867.65466	-1154.62134	-59.70317	767.53888	-1200.75110	-28.90745	773.55884	-1180.17908	-6.84806	700.19110	-851.27563	-219.08377	911.03943	-1086.56238	-231.69821	926.47369	-908.40594	-59.93665	931.71210	-1054.99573	-67.83205	946.09381	-797.88007	-136.34119	608.79547	-813.87854	-114.41547	430.23688	-821.01855	51.06350	315.33667	-864.42615	206.90369	180.72287	-903.83807	248.71645	204.18263	-903.34338	177.96815	37.56330	-1132.76428	-253.24210	637.42371	-1083.26074	-325.89142	476.37769	-1087.64844	-304.17587	281.17548	-1037.06128	-286.40338	67.62132	-987.91840	-238.98029	36.63778	-1018.25043	-426.54211	32.78948	-963.49475	-121.32307	1655.13342																					 
108	1.070	-918.09308	-227.76308	1608.29016	-1050.94080	-218.88524	1611.77441	-915.60645	-108.02975	1545.92358	-1046.00525	-104.15140	1549.22095	-973.05792	-92.35743	1389.35071	-968.60016	-71.13979	1078.44653	-977.45038	-221.18410	1322.37842	-968.51294	-273.68903	1160.33081	-1058.03601	-47.42108	1211.91772	-821.22174	-177.14441	1360.73828	-739.49182	-201.44685	1173.48645	-725.05554	-240.38271	1060.58508	-743.26392	-337.08200	983.52399	-794.98859	-425.90417	920.41632	-745.86572	-412.24734	898.28558	-764.36676	-485.19711	867.08099	-1136.17188	-165.90546	1339.61194	-1195.39063	-124.88590	1117.84351	-1198.70898	-112.26411	1003.74176	-1195.12573	-82.97973	869.25952	-1156.74463	-77.37186	768.92401	-1202.31567	-46.25118	774.80444	-1181.78345	-24.99231	701.16504	-851.81213	-231.82068	912.11774	-1087.46423	-245.21396	928.24792	-909.59192	-72.70494	932.49426	-1056.00623	-81.36444	947.63666	-798.10626	-154.68832	608.31042	-813.48590	-139.67387	428.92841	-819.54449	25.59788	316.16223	-864.73804	185.82513	188.09622	-905.24402	226.91750	212.39651	-898.72229	160.23740	43.39162	-1133.85583	-263.73529	638.64667	-1084.38135	-332.88266	475.53549	-1088.06946	-307.84271	280.79874	-1036.97998	-286.48685	67.67560	-987.98474	-239.02708	36.84670	-1018.25732	-426.61551	32.68474	-963.81494	-134.90039	1657.01172																					 
109	1.080	-918.27466	-240.99081	1609.98743	-1051.15222	-232.24478	1613.53943	-915.93872	-121.11092	1547.88818	-1046.36853	-117.34540	1551.29407	-973.71198	-105.37791	1391.03271	-969.92731	-84.34003	1080.15100	-977.58972	-234.07893	1324.12842	-968.38593	-286.62918	1162.02197	-1059.52576	-60.94938	1213.76318	-821.68341	-189.08911	1362.23450	-740.36353	-212.20613	1174.58911	-725.98285	-249.93378	1061.19141	-744.44263	-346.02930	983.66235	-796.44586	-434.37021	920.22479	-747.22845	-420.81577	898.15393	-766.02350	-493.62354	866.62726	-1136.64868	-179.78255	1341.52490	-1196.67139	-139.86545	1119.73962	-1200.41663	-127.78793	1005.60107	-1196.95789	-100.02930	870.77881	-1158.50757	-95.85833	770.32336	-1204.10266	-64.30466	775.93140	-1183.80933	-44.22126	702.07135	-851.97913	-243.99536	913.53827	-1088.02600	-258.66599	929.89557	-910.80768	-85.32099	933.36353	-1057.16760	-94.79374	949.47345	-798.34839	-172.68614	608.64209	-812.99585	-165.53157	428.36887	-818.95990	-0.21285	317.65103	-865.58765	163.31235	195.14653	-907.69287	204.72572	218.21599	-893.32239	137.95874	48.86046	-1134.41675	-272.87616	638.96082	-1085.33948	-339.08881	474.54187	-1088.11938	-311.25751	280.37296	-1036.86096	-286.57755	67.76621	-987.97400	-239.07658	37.08298	-1018.21716	-426.72018	32.61118	-964.01129	-148.29729	1658.92432																					 
110	1.090	-918.51740	-254.29391	1611.63147	-1051.28345	-245.53877	1615.35278	-916.26660	-134.07349	1549.97778	-1046.67627	-130.41760	1553.47900	-974.56964	-118.17594	1393.01416	-971.15540	-97.26684	1081.90698	-977.61285	-246.71970	1325.96033	-968.12854	-299.35590	1163.81348	-1061.17090	-74.25750	1215.59192	-821.95532	-200.71492	1363.87573	-741.04889	-222.55037	1175.74084	-726.93011	-258.93338	1061.76074	-745.50281	-354.73077	983.71588	-797.61621	-442.66229	919.67371	-748.34412	-429.01123	897.73767	-767.62518	-501.50119	865.41907	-1137.23340	-193.64349	1343.40466	-1197.88757	-155.11072	1121.58020	-1202.21240	-143.68134	1007.39777	-1198.84070	-117.66117	872.21991	-1160.59619	-114.94933	771.70172	-1205.96399	-83.10718	776.92853	-1185.67542	-64.46262	702.67163	-851.89539	-256.07086	914.80212	-1088.36768	-271.96494	931.34314	-912.18628	-97.72430	934.37262	-1058.47168	-108.00764	951.59674	-798.76270	-190.43446	609.81860	-812.51343	-191.50075	428.97800	-819.52216	-26.05125	320.05713	-867.13110	139.78485	201.50018	-910.15820	181.34990	222.08171	-887.80676	111.56837	53.99658	-1134.75110	-281.40414	638.87665	-1085.94446	-344.94180	473.50092	-1088.50110	-314.84686	279.97296	-1036.80334	-286.69165	67.81298	-987.96771	-239.08501	37.29974	-1018.19574	-426.76700	32.51111	-964.19025	-161.52348	1661.09619																					 
111	1.100	-918.57727	-267.33652	1613.48706	-1051.39124	-258.74228	1617.26672	-916.50775	-146.94991	1552.18054	-1046.81982	-143.41498	1555.73291	-975.67810	-130.68942	1395.12268	-972.17413	-109.95906	1083.69421	-977.43085	-259.19958	1327.89795	-967.78223	-311.89447	1165.74109	-1062.82581	-87.39904	1217.38525	-822.03241	-212.10738	1365.65540	-741.64880	-232.52345	1176.91431	-727.75311	-268.01715	1062.40381	-746.54755	-363.16092	983.65198	-798.64526	-450.53223	918.67474	-749.18994	-436.80606	897.05731	-769.09723	-508.82867	863.50732	-1137.41858	-207.40968	1345.57288	-1198.85608	-170.75916	1123.36975	-1203.90576	-160.03914	1009.17908	-1200.74060	-135.85040	873.65247	-1162.67261	-134.70303	773.16760	-1207.91980	-102.63670	777.90375	-1187.83813	-85.69907	703.22247	-852.07867	-268.17239	916.64832	-1088.61609	-285.14493	932.68457	-913.56696	-110.10630	935.51764	-1059.75879	-121.09078	953.89484	-799.32672	-208.46370	611.66162	-812.29144	-217.30267	430.85468	-820.35040	-51.85333	323.10669	-868.39008	114.54596	205.57014	-912.26556	156.65074	223.94572	-883.29388	83.13519	58.02732	-1134.91931	-289.34747	638.91174	-1086.26819	-350.48242	472.62497	-1088.42200	-317.69073	279.71109	-1036.84192	-286.74985	67.97803	-988.06537	-239.10193	37.56315	-1018.15619	-426.78470	32.41770	-964.33026	-174.90614	1663.32263																					 
